inDegrees=yes
name=ik_S49_A03_T01
DataType=double
version=3
OpenSimVersion=4.3-2021-08-27-4bc7ad9
endheader
time	pelvis_tilt	pelvis_list	pelvis_rotation	pelvis_tx	pelvis_ty	pelvis_tz	hip_flexion_r	hip_adduction_r	hip_rotation_r	knee_angle_r	knee_angle_r_beta	ankle_angle_r	subtalar_angle_r	mtp_angle_r	hip_flexion_l	hip_adduction_l	hip_rotation_l	knee_angle_l	knee_angle_l_beta	ankle_angle_l	subtalar_angle_l	mtp_angle_l	lumbar_extension	lumbar_bending	lumbar_rotation	arm_flex_r	arm_add_r	arm_rot_r	elbow_flex_r	pro_sup_r	wrist_flex_r	wrist_dev_r	arm_flex_l	arm_add_l	arm_rot_l	elbow_flex_l	pro_sup_l	wrist_flex_l	wrist_dev_l
23.69999999999958	-0.4625534321916468	-0.5559171664838809	98.61219085450634	0	0.9399999999999999	0	2.426930611764512	-2.93097329449068	-4.080159469319868	-0.9084880112575167	-0.01585610701133898	0	0	0	9.113928799236509	-3.536979289904829	-7.275294983032347	12.86683866741512	0.2245686990693134	0	0	0	0	0	0	40.39096769395769	-40.39096769395768	4.903770943417405	83.63142500744266	85.09622932699907	0	0	40.39096769395769	-40.39096769395768	4.903770943417405	83.63142500744266	85.0962293269814	0	0
23.71999999999958	-0.364253001747347	-0.6254713370398042	98.61335747635367	0	0.9399999999999999	0	2.352559259164203	-2.924904858024348	-4.605551931953697	-0.7672626770941581	-0.01339125994295914	0	0	0	9.038198331022544	-3.393584514280328	-6.646594478732517	12.74679812519961	0.2224735963717736	0	0	0	0	0	0	40.39128162356221	-40.39128162356219	4.903784128116802	83.63161255962713	85.09621614230024	0	0	40.39128162356221	-40.39128162356219	4.903784128116802	83.63161255962713	85.09621614228259	0	0
23.73999999999958	-0.2186276856813172	-0.6683345947510743	98.68994094117848	0	0.9399999999999999	0	2.384691837463756	-2.834313875307584	-5.387242271826491	-0.1228219727959523	-0.002143647819084273	0	0	0	8.958882844033814	-3.368566728181643	-6.755050035897352	12.65521693194804	0.2208752030166285	0	0	0	0	0	0	40.39199575516398	-40.39199575516397	4.903814090361061	83.63203877191866	85.09618618005727	0	0	40.39199575516398	-40.39199575516397	4.903814090361061	83.63203877191866	85.09618618003962	0	0
23.75999999999958	-0.135951389320261	-0.6822815474822539	98.69982518458595	0	0.9399999999999999	0	2.553784645760652	-2.715485303945753	-6.09473406379737	0.9575011459359822	0.01671154758820161	0	0	0	8.861656909365227	-3.411406126091845	-7.137234167418114	12.58958767996391	0.2197297564838844	0	0	0	0	0	0	40.39336611587219	-40.39336611587218	4.903871349072786	83.63285327363718	85.09612892134807	0	0	40.39336611587219	-40.39336611587218	4.903871349072786	83.63285327363718	85.0961289213304	0	0
23.77999999999958	0.04415357910137978	-0.6871058775321561	98.73766040085135	0	0.9399999999999999	0	2.952802185259839	-2.366824816271054	-7.064178971560165	2.564479781739286	0.0447586157921761	0	0	0	8.896004006387777	-3.537175251471357	-7.030092431747437	12.74388013024774	0.2224226677523069	0	0	0	0	0	0	40.39448717820386	-40.39448717820385	4.903918445264448	83.6335232162493	85.09608182515845	0	0	40.39448717820386	-40.39448717820385	4.903918445264448	83.6335232162493	85.09608182514079	0	0
23.79999999999958	0.4517379532721842	-0.6402776339498081	98.77943085455699	0	0.9399999999999999	0	2.919785866756205	-1.98162670200677	-7.109630708330839	3.110068832184546	0.05428094108527531	0	0	0	8.761105443704839	-3.852848548150159	-6.774961875505991	12.57979180931906	0.2195587862880324	0	0	0	0	0	0	40.39509770425347	-40.39509770425346	4.903943881020076	83.63388503767965	85.09605638940394	0	0	40.39509770425347	-40.39509770425346	4.903943881020076	83.63388503767965	85.09605638938632	0	0
23.81999999999958	0.5418711569368976	-0.6673435983959204	98.63490012336153	0	0.9399999999999999	0	2.966929843431038	-1.998587598476226	-7.00508436174696	4.83114366999257	0.08431936367825271	0	0	0	8.815487346878623	-3.873930436838323	-6.860499614280958	12.74305190306577	0.222408212461027	0	0	0	0	0	0	40.39618569967892	-40.3961856996789	4.903989170074028	83.63452927016442	85.09601110035187	0	0	40.39618569967892	-40.3961856996789	4.903989170074028	83.63452927016442	85.09601110033428	0	0
23.83999999999958	0.4713657836127491	-0.6541195638295519	98.38279963402054	0	0.9399999999999999	0	8.632677515787231	-1.499106432828106	-9.811232986611703	12.676537346909	0.2212473144555887	0	0	0	8.214920075281947	-3.675896636305804	-6.333351378630056	12.04533346568035	0.2102307284767814	0	0	0	0	0	0	40.46059240063693	-40.46059240063691	4.906280441299375	83.6671190934787	85.09371982922512	0	0	40.46059240063693	-40.46059240063691	4.906280441299375	83.6671190934787	85.09371982920786	0	0
23.85999999999958	0.2266320031978467	-0.5239392858431351	98.17177214891247	0	0.9399999999999999	0	8.422977185635705	-1.814407580891431	-9.643906513475194	15.03380045998361	0.262389317114552	0	0	0	7.961694973315859	-3.395697761289481	-6.954963148151628	12.23140820067075	0.2134783452571399	0	0	0	0	0	0	40.46270097774478	-40.46270097774477	4.906367508184882	83.66835759790136	85.09363276234345	0	0	40.46270097774478	-40.46270097774477	4.906367508184882	83.66835759790136	85.09363276232622	0	0
23.87999999999958	0.1114505090700545	-0.3814998221203242	98.02417573726791	0	0.9399999999999999	0	10.24262655770527	-2.530978621119065	-7.867684012443675	18.91695189836601	0.3301630950678786	0	0	0	7.876877435653665	-3.202251536070334	-7.154221375175909	12.4788373553653	0.2177967986719862	0	0	0	0	0	0	40.46480528859034	-40.46480528859033	4.906454760268852	83.66959873922835	85.09354551026334	0	0	40.46480528859034	-40.46480528859033	4.906454760268852	83.66959873922835	85.09354551024612	0	0
23.89999999999958	-0.06444750675700441	-0.1064192132055503	97.66464517873356	0	0.9399999999999999	0	11.70110375791479	-3.465804882125023	-7.877019943675055	24.0731231993416	0.4201552610667422	0	0	0	7.435826427057258	-2.687061874213375	-6.23395209409996	12.24743757329214	0.2137581105864121	0	0	0	0	0	0	40.46569761689906	-40.46569761689906	4.906491749789298	83.6701249067617	85.09350852074452	0	0	40.46569761689906	-40.46569761689906	4.906491749789298	83.6701249067617	85.0935085207273	0	0
23.91999999999958	-0.08720535782446938	-0.06349881180283484	97.22115575380818	0	0.9399999999999999	0	13.8324936528952	-4.026819051412152	-6.984739804886986	29.09197857566225	0.5077508120649565	0	0	0	7.100992649038777	-2.199989169574552	-5.070145659579012	12.08003479102411	0.2108363808588358	0	0	0	0	0	0	40.46776192123193	-40.46776192123191	4.906577219389833	83.67134069116753	85.09342305114778	0	0	40.46776192123193	-40.46776192123191	4.906577219389833	83.67134069116753	85.09342305113063	0	0
23.93999999999958	-0.1248344693720014	-0.07231434679430301	96.94289860737115	0	0.9399999999999999	0	16.38861149374058	-4.277314997182199	-4.210799053074567	33.04948739926144	0.5768223712134899	0	0	0	6.833031834289171	-2.166325713775628	-4.755958456819567	11.75475318863781	0.2051591459010318	0	0	0	0	0	0	40.50170322846704	-40.50170322846703	4.907770002292475	83.68830605695048	85.09223026829633	0	0	40.50170322846704	-40.50170322846703	4.907770002292475	83.68830605695048	85.09223026827935	0	0
23.95999999999958	-0.08828102925125333	-0.008870190055395239	96.78280941178384	0	0.9399999999999999	0	18.28022561399092	-4.465349580040463	-3.827625788120396	35.40333219132388	0.6179047129159007	0	0	0	6.564468446397256	-2.050217755704811	-6.319322031553033	12.49799444369576	0.2181311529384481	0	0	0	0	0	0	40.53025561186786	-40.53025561186784	4.90876882912257	83.70251267531005	85.09123144150904	0	0	40.53025561186786	-40.53025561186784	4.90876882912257	83.70251267531005	85.09123144149228	0	0
23.97999999999958	0.05395833743131848	0.05088247701588035	96.73104751459253	0	0.9399999999999999	0	19.85859689587967	-4.308024537647408	-3.911718410614087	36.99593658831167	0.6457009033250766	0	0	0	6.144257719558613	-2.064658178974256	-6.234271846847691	12.33924329723031	0.2153604227413103	0	0	0	0	0	0	40.53176358725998	-40.53176358725997	4.908830562009669	83.70339080013434	85.09116970862462	0	0	40.53176358725998	-40.53176358725997	4.908830562009669	83.70339080013434	85.09116970860791	0	0
23.99999999999958	0.1841672073343137	0.07480065105037059	96.70283585149313	0	0.9399999999999999	0	21.42727660620506	-4.150418692459193	-3.731359109410679	37.49746518848222	0.6544542286909708	0	0	0	5.711728134263918	-2.025571472836802	-5.864536965296546	12.07741100819612	0.2107905872096301	0	0	0	0	0	0	40.5332065840174	-40.53320658401739	4.908889638862146	83.70423114384307	85.09111063177477	0	0	40.5332065840174	-40.53320658401739	4.908889638862146	83.70423114384307	85.09111063175806	0	0
24.01999999999958	0.5108179715090584	0.1214054612924383	96.62024287475708	0	0.9399999999999999	0	22.68956125034627	-3.748920343536195	-4.13545535784306	36.73870347182336	0.6412113384971894	0	0	0	5.308599810231388	-2.263206289943648	-6.034971776309339	11.9291480136973	0.2082029097967594	0	0	0	0	0	0	40.53451883915598	-40.53451883915596	4.90894331642611	83.70499468442175	85.09105695421319	0	0	40.53451883915598	-40.53451883915596	4.90894331642611	83.70499468442175	85.09105695419647	0	0
24.03999999999958	0.5093940606334841	0.1128406712824407	96.61102087137913	0	0.9399999999999999	0	23.86935683842998	-3.671983864552372	-4.020687545664607	36.53931515658649	0.6377313559063017	0	0	0	5.331368061736164	-2.253890448625192	-6.040268364124887	11.92317574716115	0.208098674081897	0	0	0	0	0	0	40.53526832299863	-40.53526832299861	4.908973918809821	83.70542998985975	85.09102635183079	0	0	40.53526832299863	-40.53526832299861	4.908973918809821	83.70542998985975	85.09102635181408	0	0
24.05999999999958	1.369491738519465	-0.2536723933805636	96.38829877368985	0	0.9399999999999999	0	25.31415585022351	-2.527413742719525	-3.301012079901188	34.08631695372481	0.5949184607208616	0	0	0	5.418840929752087	-2.975704135053431	-6.630164168253897	11.88240855657784	0.2073871523794302	0	0	0	0	0	0	40.53734418016271	-40.53734418016269	4.909058978992319	83.70663993557258	85.090941291652	0	0	40.53734418016271	-40.53734418016269	4.909058978992319	83.70663993557258	85.09094129163532	0	0
24.07999999999958	1.57590488551329	-0.4104964623545046	96.36968439335666	0	0.9399999999999999	0	26.19596842084293	-1.54842614650925	-2.753055306460601	26.6025590560394	0.4643022449841221	0	0	0	4.745393617789421	-3.061347921772928	-7.224871363757511	11.35637547029893	0.1982061430494358	0	0	0	0	0	0	40.54964079920715	-40.54964079920713	4.909496350452373	83.71286085459754	85.09050392021071	0	0	40.54964079920715	-40.54964079920713	4.909496350452373	83.71286085459754	85.09050392019419	0	0
